<svg xmlns="http://www.w3.org/2000/svg" width="1200" height="400" fill="none" viewBox="0 0 1200 400"><defs><linearGradient id="bg_grad" x1="0" x2="1200" y1="0" y2="400" gradientUnits="userSpaceOnUse"><stop stop-color="#0F172A"/><stop offset="1" stop-color="#1E293B"/></linearGradient><linearGradient id="helmet_grad" x1="600" x2="600" y1="100" y2="300" gradientUnits="userSpaceOnUse"><stop stop-color="#818CF8"/><stop offset="1" stop-color="#4F46E5"/></linearGradient><filter id="glow" width="140%" height="140%" x="-20%" y="-20%"><feGaussianBlur result="blur" stdDeviation="5"/><feComposite in="SourceGraphic" in2="blur" operator="over"/></filter></defs><rect width="1200" height="400" fill="url(#bg_grad)"/><path stroke="#fff" stroke-opacity=".05" stroke-width="1" d="M0 50H1200 M0 350H1200 M50 0V400 M1150 0V400"/><circle cx="600" cy="200" r="150" stroke="#6366F1" stroke-opacity=".1" stroke-width="2"/><circle cx="600" cy="200" r="180" stroke="#6366F1" stroke-opacity=".05" stroke-width="1"/><rect width="1200" height="2" fill="#6366F1" fill-opacity=".1"><animate attributeName="y" dur="4s" from="50" repeatCount="indefinite" to="350"/></rect><g filter="url(#glow)" transform="translate(540, 120) scale(0.5)"><path fill="url(#helmet_grad)" d="M120 20C75.8 20 40 55.8 40 100V140C40 184.2 75.8 220 120 220C164.2 220 200 184.2 200 140V100C200 55.8 164.2 20 120 20Z"/><path fill="#0F172A" d="M50 110H190V130C190 130 170 145 120 145C70 145 50 130 50 130V110Z"/><path fill="#0F172A" d="M110 145V220H130V145H110Z"/><circle cx="120" cy="60" r="4" fill="#fff"/><circle cx="80" cy="80" r="3" fill="#fff" fill-opacity=".6"/><circle cx="160" cy="80" r="3" fill="#fff" fill-opacity=".6"/><path stroke="#fff" stroke-opacity=".3" stroke-width="1" d="M120 60 L80 80 M120 60 L160 80"/></g><text x="600" y="280" fill="#fff" font-family="Inter, sans-serif" font-size="64" font-weight="900" letter-spacing=".2em" text-anchor="middle">MARKFLOW</text><text x="600" y="310" fill="#818CF8" fill-opacity=".8" font-family="JetBrains Mono, monospace" font-size="14" font-weight="500" letter-spacing=".5em" text-anchor="middle">FRONTIER AI COMMAND CENTER</text><rect width="120" height="20" x="50" y="365" fill="#6366F1" fill-opacity=".1" stroke="#6366F1" stroke-opacity=".2" rx="4"/><text x="110" y="379" fill="#818CF8" font-family="monospace" font-size="10" font-weight="bold" text-anchor="middle">ENGINE: GEMINI 3.1</text><rect width="100" height="20" x="180" y="365" fill="#10B981" fill-opacity=".1" stroke="#10B981" stroke-opacity=".2" rx="4"/><text x="230" y="379" fill="#10B981" font-family="monospace" font-size="10" font-weight="bold" text-anchor="middle">SYSTEM: ONLINE</text><path stroke="#6366F1" stroke-width="3" d="M20 20 L50 20 M20 20 L20 50"/><path stroke="#6366F1" stroke-width="3" d="M1180 20 L1150 20 M1180 20 L1180 50"/><path stroke="#6366F1" stroke-width="3" d="M20 380 L50 380 M20 380 L20 350"/><path stroke="#6366F1" stroke-width="3" d="M1180 380 L1150 380 M1180 380 L1180 350"/></svg>